# xmcd
#
# Track frame offsets:
#	150
#	3735
#	22949
#	33427
#	53383
#	61819
#	74499
#	85763
#	100652
#	113583
#	125322
#	139939
#	151682
#	169890
#	184065
#
# Disc length: 2512 seconds
#
# Revision: 0
# Processed by: cddbd v1.5.1PL0 Copyright (c) Steve Scherf et al.
# Submitted via: audiograbber 1.83.01
#
DISCID=b409ce0f
DTITLE=Back door men - Back to the blues ...
DYEAR=1900
DGENRE=Blues
TTITLE0=Da blues (intro)
TTITLE1=Cotton picking
TTITLE2=Bluesman
TTITLE3=Down in the hole
TTITLE4=Wanted man
TTITLE5=Sometimes blues
TTITLE6=Breakfast blues
TTITLE7=Lights of home
TTITLE8=Hush hush blues
TTITLE9=Delta blues
TTITLE10=Bon vieux temps
TTITLE11=Let's drive
TTITLE12=Morning lights blues
TTITLE13=Back to the blues
TTITLE14=Da blues (outro)
EXTD=
EXTT0=
EXTT1=
EXTT2=
EXTT3=
EXTT4=
EXTT5=
EXTT6=
EXTT7=
EXTT8=
EXTT9=
EXTT10=
EXTT11=
EXTT12=
EXTT13=
EXTT14=
PLAYORDER=
